<svg xmlns="http://www.w3.org/2000/svg" viewBox="0 0 32 32">
  <defs>
    <linearGradient id="g" x1="0" y1="0" x2="1" y2="1">
      <stop offset="0%" stop-color="#b5450a"/>
      <stop offset="50%" stop-color="#d06b1a"/>
      <stop offset="100%" stop-color="#e8a33c"/>
    </linearGradient>
  </defs>
  <rect width="32" height="32" rx="8" fill="url(#g)"/>
  <path d="M16 8a4 4 0 0 0-4 4v3h-1a2 2 0 0 0-2 2v5a2 2 0 0 0 2 2h10a2 2 0 0 0 2-2v-5a2 2 0 0 0-2-2h-1v-3a4 4 0 0 0-4-4zm-2 7v-3a2 2 0 1 1 4 0v3h-4z" fill="white"/>
</svg>
